%TF.GenerationSoftware,KiCad,Pcbnew,(6.0.9)*%
%TF.CreationDate,2022-12-05T13:16:43+00:00*%
%TF.ProjectId,stm32controller,73746d33-3263-46f6-9e74-726f6c6c6572,rev?*%
%TF.SameCoordinates,Original*%
%TF.FileFunction,Copper,L4,Bot*%
%TF.FilePolarity,Positive*%
%FSLAX46Y46*%
G04 Gerber Fmt 4.6, Leading zero omitted, Abs format (unit mm)*
G04 Created by KiCad (PCBNEW (6.0.9)) date 2022-12-05 13:16:43*
%MOMM*%
%LPD*%
G01*
G04 APERTURE LIST*
%TA.AperFunction,ComponentPad*%
%ADD10R,2.200000X2.200000*%
%TD*%
%TA.AperFunction,ComponentPad*%
%ADD11C,2.200000*%
%TD*%
%TA.AperFunction,ComponentPad*%
%ADD12C,1.700000*%
%TD*%
%TA.AperFunction,ComponentPad*%
%ADD13R,1.700000X1.700000*%
%TD*%
%TA.AperFunction,ComponentPad*%
%ADD14R,1.800000X1.800000*%
%TD*%
%TA.AperFunction,ComponentPad*%
%ADD15C,1.800000*%
%TD*%
%TA.AperFunction,ConnectorPad*%
%ADD16C,8.000000*%
%TD*%
%TA.AperFunction,ComponentPad*%
%ADD17C,4.400000*%
%TD*%
%TA.AperFunction,ComponentPad*%
%ADD18O,1.700000X1.700000*%
%TD*%
%TA.AperFunction,ViaPad*%
%ADD19C,0.800000*%
%TD*%
%TA.AperFunction,Conductor*%
%ADD20C,0.300000*%
%TD*%
%TA.AperFunction,Conductor*%
%ADD21C,0.750000*%
%TD*%
%TA.AperFunction,Conductor*%
%ADD22C,0.274828*%
%TD*%
G04 APERTURE END LIST*
D10*
%TO.P,J8,1,Pin_1*%
%TO.N,A0*%
X65920000Y-86000000D03*
D11*
%TO.P,J8,2,Pin_2*%
%TO.N,A1*%
X68460000Y-86000000D03*
%TO.P,J8,3,Pin_3*%
%TO.N,A2*%
X71000000Y-86000000D03*
%TO.P,J8,4,Pin_4*%
%TO.N,A3*%
X73540000Y-86000000D03*
%TD*%
D12*
%TO.P,SW1,1,A*%
%TO.N,GND*%
X66250000Y-68250000D03*
D13*
X66250000Y-61750000D03*
D12*
%TO.P,SW1,2,B*%
%TO.N,nRST*%
X61750000Y-61750000D03*
X61750000Y-68250000D03*
%TD*%
D10*
%TO.P,J3,1,Pin_1*%
%TO.N,+3V3*%
X50130000Y-86288345D03*
D11*
%TO.P,J3,2,Pin_2*%
%TO.N,GND*%
X52670000Y-86288345D03*
%TO.P,J3,3,Pin_3*%
%TO.N,C13*%
X55210000Y-86288345D03*
%TO.P,J3,4,Pin_4*%
%TO.N,C14*%
X57750000Y-86288345D03*
%TD*%
D14*
%TO.P,D1,1,K*%
%TO.N,Net-(D1-Pad1)*%
X60670000Y-53000000D03*
D15*
%TO.P,D1,2,A*%
%TO.N,+3V3*%
X63210000Y-53000000D03*
%TD*%
D10*
%TO.P,J6,1,Pin_1*%
%TO.N,D9*%
X80815000Y-30000000D03*
D11*
%TO.P,J6,2,Pin_2*%
%TO.N,GND*%
X78275000Y-30000000D03*
%TO.P,J6,3,Pin_3*%
X75735000Y-30000000D03*
%TO.P,J6,4,Pin_4*%
%TO.N,+3V3*%
X73195000Y-30000000D03*
%TD*%
D10*
%TO.P,J5,1,Pin_1*%
%TO.N,D5*%
X64815000Y-30000000D03*
D11*
%TO.P,J5,2,Pin_2*%
%TO.N,D6*%
X62275000Y-30000000D03*
%TO.P,J5,3,Pin_3*%
%TO.N,D7*%
X59735000Y-30000000D03*
%TO.P,J5,4,Pin_4*%
%TO.N,D8*%
X57195000Y-30000000D03*
%TD*%
D16*
%TO.P,H2,1,1*%
%TO.N,GND*%
X38000000Y-32000000D03*
D17*
X38000000Y-32000000D03*
%TD*%
%TO.P,H4,1,1*%
%TO.N,GND*%
X117000000Y-84000000D03*
D16*
X117000000Y-84000000D03*
%TD*%
D10*
%TO.P,J4,1,Pin_1*%
%TO.N,C15*%
X96290000Y-30250000D03*
D11*
%TO.P,J4,2,Pin_2*%
%TO.N,D0*%
X93750000Y-30250000D03*
%TO.P,J4,3,Pin_3*%
%TO.N,D1*%
X91210000Y-30250000D03*
%TO.P,J4,4,Pin_4*%
%TO.N,D2*%
X88670000Y-30250000D03*
%TD*%
D13*
%TO.P,J1,1,Pin_1*%
%TO.N,GND*%
X116250000Y-61250000D03*
D18*
%TO.P,J1,2,Pin_2*%
%TO.N,+3V3*%
X116250000Y-63790000D03*
%TO.P,J1,3,Pin_3*%
%TO.N,nrf_CE*%
X113710000Y-61250000D03*
%TO.P,J1,4,Pin_4*%
%TO.N,+3V3*%
X113710000Y-63790000D03*
%TO.P,J1,5,Pin_5*%
%TO.N,SCK*%
X111170000Y-61250000D03*
%TO.P,J1,6,Pin_6*%
%TO.N,MOSI*%
X111170000Y-63790000D03*
%TO.P,J1,7,Pin_7*%
%TO.N,MISO*%
X108630000Y-61250000D03*
%TO.P,J1,8,Pin_8*%
%TO.N,+3V3*%
X108630000Y-63790000D03*
%TD*%
D10*
%TO.P,J9,1,Pin_1*%
%TO.N,A4*%
X80920000Y-86000000D03*
D11*
%TO.P,J9,2,Pin_2*%
%TO.N,GYRO_INT*%
X83460000Y-86000000D03*
%TO.P,J9,3,Pin_3*%
%TO.N,A10*%
X86000000Y-86000000D03*
%TO.P,J9,4,Pin_4*%
%TO.N,GND*%
X88540000Y-86000000D03*
%TD*%
D17*
%TO.P,H3,1,1*%
%TO.N,GND*%
X117000000Y-32000000D03*
D16*
X117000000Y-32000000D03*
%TD*%
D10*
%TO.P,J7,1,Pin_1*%
%TO.N,+7.5V*%
X36500000Y-47380000D03*
D11*
%TO.P,J7,2,Pin_2*%
%TO.N,unconnected-(J7-Pad2)*%
X36500000Y-49920000D03*
%TO.P,J7,3,Pin_3*%
%TO.N,unconnected-(J7-Pad3)*%
X36500000Y-52460000D03*
%TO.P,J7,4,Pin_4*%
%TO.N,GND*%
X36500000Y-55000000D03*
%TD*%
D17*
%TO.P,H1,1,1*%
%TO.N,GND*%
X38000000Y-84000000D03*
D16*
X38000000Y-84000000D03*
%TD*%
D19*
%TO.N,A4*%
X95000000Y-64240500D03*
X95000000Y-66000000D03*
%TO.N,GYRO_INT*%
X91000000Y-68500000D03*
X93000000Y-52500000D03*
X85500000Y-55000000D03*
X85500000Y-63000500D03*
%TO.N,A10*%
X87425500Y-63750000D03*
X91000000Y-66500000D03*
%TO.N,GND*%
X58000000Y-58500000D03*
X76500000Y-55000000D03*
X95750000Y-56250000D03*
X43250000Y-54250000D03*
X67500000Y-62000000D03*
X39250000Y-36500000D03*
X84750000Y-77750000D03*
X54250000Y-50000000D03*
X90683328Y-58266668D03*
X87250000Y-72250000D03*
X72750000Y-48250000D03*
X72250000Y-66500000D03*
X75250000Y-39250000D03*
X75750000Y-31750000D03*
X37250000Y-56500000D03*
X57000000Y-43500000D03*
X44250000Y-54000000D03*
X77250000Y-67500000D03*
X112500000Y-44750000D03*
X54250000Y-51000000D03*
X82000000Y-72500000D03*
X107250000Y-40500000D03*
X111250000Y-50750000D03*
X56000000Y-43500000D03*
X79622909Y-63334091D03*
X71000000Y-64250000D03*
X42750000Y-84000000D03*
X43000000Y-51750000D03*
X94500000Y-50250000D03*
X89250000Y-84500000D03*
X117000000Y-59500000D03*
X88750000Y-53500000D03*
X85750000Y-71000000D03*
X77702912Y-31751438D03*
X45250000Y-32500000D03*
X51750000Y-69500000D03*
X95750000Y-57250000D03*
X52750000Y-84538345D03*
X70250000Y-39250000D03*
X108250000Y-52250000D03*
X112750000Y-82250000D03*
X71000000Y-65500000D03*
X106250000Y-40500000D03*
X83000000Y-72500000D03*
X81750000Y-51000000D03*
X82500000Y-58500000D03*
X67750000Y-68250000D03*
X60500000Y-43500000D03*
X36250000Y-56750000D03*
X108250000Y-55000000D03*
X85250000Y-68000000D03*
X54250000Y-49000000D03*
X71250000Y-66500000D03*
X112750000Y-30000000D03*
X79000000Y-72250000D03*
X78500000Y-68750000D03*
X61500000Y-43500000D03*
X90000000Y-52500000D03*
X116000000Y-59500000D03*
%TO.N,A0*%
X88250000Y-72750000D03*
X80250000Y-79750000D03*
%TO.N,A1*%
X79470023Y-81220023D03*
X89750000Y-71750000D03*
%TO.N,A2*%
X87750000Y-80750000D03*
X91000000Y-72000000D03*
%TO.N,A3*%
X91250000Y-64240500D03*
X92000000Y-71250000D03*
%TO.N,+7.5V*%
X46500000Y-33000000D03*
X49575001Y-31896108D03*
%TO.N,D9*%
X77970023Y-50970023D03*
X83750000Y-59000000D03*
%TO.N,D5*%
X71500000Y-50000000D03*
X69250000Y-37500000D03*
%TO.N,D6*%
X70000000Y-55500000D03*
X68250000Y-53500000D03*
%TO.N,D7*%
X68500000Y-56500000D03*
X67000000Y-55000000D03*
%TO.N,D8*%
X75750000Y-63000000D03*
X66250000Y-58750000D03*
X64750000Y-57000000D03*
X73250000Y-63000000D03*
%TO.N,C15*%
X90250000Y-36500000D03*
X83460889Y-63789111D03*
X82000000Y-49000000D03*
X94500000Y-34500000D03*
X84750000Y-41000000D03*
X82000000Y-41500000D03*
%TO.N,D0*%
X101000000Y-45500000D03*
X104250000Y-56000000D03*
%TO.N,D1*%
X91000000Y-60700500D03*
X98750000Y-45750000D03*
%TO.N,D2*%
X87500000Y-58750000D03*
X83750000Y-51250000D03*
%TO.N,/USB_D+*%
X60500000Y-35751600D03*
X86763555Y-41472925D03*
%TO.N,+3V3*%
X80750000Y-56750000D03*
X50000000Y-51500000D03*
X113750000Y-65250000D03*
X73250000Y-31750000D03*
X51750000Y-74500000D03*
X116500000Y-65250000D03*
X52250000Y-42000000D03*
X94500000Y-55000000D03*
X107250000Y-64000000D03*
X50000000Y-84288345D03*
X63250000Y-54750000D03*
X91750000Y-58000000D03*
X80220023Y-54279977D03*
X105250000Y-44750000D03*
X48250000Y-56250000D03*
X49250000Y-57750000D03*
X91500000Y-55500000D03*
X112500000Y-47500000D03*
X53250000Y-56250000D03*
X85750000Y-69000000D03*
X109250000Y-43500000D03*
X51750000Y-57750000D03*
X80250000Y-39250000D03*
X75500000Y-66500000D03*
X51250000Y-51500000D03*
X76750000Y-64000000D03*
%TO.N,nRST*%
X76250000Y-59750000D03*
X83392998Y-62392997D03*
%TO.N,I2C_SCL*%
X105500000Y-53000000D03*
X106000000Y-49000000D03*
%TO.N,I2C_SDA*%
X105000000Y-52000000D03*
X105500000Y-48000000D03*
%TO.N,GYRO_CS*%
X94970023Y-47970023D03*
X97029977Y-48029977D03*
%TO.N,DRDY*%
X87000000Y-51000000D03*
X95500000Y-51000000D03*
%TO.N,DEN*%
X87447122Y-61155731D03*
X96000000Y-58250500D03*
%TO.N,nrf_CE*%
X87197768Y-62776787D03*
X93000000Y-61250500D03*
%TO.N,/USB_D-*%
X87472925Y-40763555D03*
X60500000Y-34748400D03*
%TO.N,SWCLK*%
X79000000Y-57000000D03*
X74500000Y-52000000D03*
%TO.N,TDO*%
X76500000Y-53500000D03*
X75000000Y-56000000D03*
%TD*%
D20*
%TO.N,A4*%
X95000000Y-66000000D02*
X95000000Y-64240500D01*
%TO.N,GYRO_INT*%
X86675500Y-64175500D02*
X91000000Y-68500000D01*
X85500000Y-63000500D02*
X86675000Y-64175500D01*
X86675000Y-64175500D02*
X86675500Y-64175500D01*
X90500000Y-55000000D02*
X93000000Y-52500000D01*
X85500000Y-55000000D02*
X90500000Y-55000000D01*
%TO.N,A10*%
X88250000Y-63750000D02*
X91000000Y-66500000D01*
X87425500Y-63750000D02*
X88250000Y-63750000D01*
%TO.N,A0*%
X85250000Y-79750000D02*
X88250000Y-76750000D01*
X88250000Y-76750000D02*
X88250000Y-72750000D01*
X80250000Y-79750000D02*
X85250000Y-79750000D01*
%TO.N,A1*%
X79500000Y-81250000D02*
X85000000Y-81250000D01*
X89750000Y-76500000D02*
X89750000Y-71750000D01*
X85000000Y-81250000D02*
X89750000Y-76500000D01*
X79470023Y-81220023D02*
X79500000Y-81250000D01*
%TO.N,A2*%
X91250000Y-78000000D02*
X91250000Y-72250000D01*
X91250000Y-72250000D02*
X91000000Y-72000000D01*
X88500000Y-80750000D02*
X91250000Y-78000000D01*
X87750000Y-80750000D02*
X88500000Y-80750000D01*
%TO.N,A3*%
X91250000Y-64240500D02*
X92000000Y-64990500D01*
X92000000Y-64990500D02*
X92000000Y-71250000D01*
%TO.N,+7.5V*%
X49575001Y-31924999D02*
X49575001Y-31896108D01*
D21*
X48471109Y-33000000D02*
X46500000Y-33000000D01*
X49575001Y-31896108D02*
X48471109Y-33000000D01*
D20*
%TO.N,D9*%
X77970023Y-50970023D02*
X83750000Y-56750000D01*
X83750000Y-56750000D02*
X83750000Y-59000000D01*
%TO.N,D5*%
X68250000Y-38500000D02*
X69250000Y-37500000D01*
X68250000Y-46750000D02*
X68250000Y-38500000D01*
X71500000Y-50000000D02*
X68250000Y-46750000D01*
%TO.N,D6*%
X70000000Y-55250000D02*
X68250000Y-53500000D01*
X70000000Y-55500000D02*
X70000000Y-55250000D01*
%TO.N,D7*%
X67000000Y-55000000D02*
X68500000Y-56500000D01*
%TO.N,D8*%
X64750000Y-57000000D02*
X64750000Y-57250000D01*
X73250000Y-63000000D02*
X75750000Y-63000000D01*
X64750000Y-57250000D02*
X66250000Y-58750000D01*
%TO.N,C15*%
X92250000Y-34500000D02*
X94500000Y-34500000D01*
X82000000Y-49250000D02*
X82000000Y-49000000D01*
X84500000Y-62750000D02*
X84500000Y-56457107D01*
X83460889Y-63789111D02*
X84500000Y-62750000D01*
X84500000Y-56457107D02*
X82500000Y-54457107D01*
X82000000Y-41500000D02*
X84250000Y-41500000D01*
X90250000Y-36500000D02*
X92250000Y-34500000D01*
X82500000Y-54457107D02*
X82500000Y-49750000D01*
X84250000Y-41500000D02*
X84750000Y-41000000D01*
X82000000Y-49250000D02*
X82500000Y-49750000D01*
%TO.N,D0*%
X101000000Y-52750000D02*
X101000000Y-45500000D01*
X104250000Y-56000000D02*
X101000000Y-52750000D01*
%TO.N,D1*%
X91200500Y-60500000D02*
X95250000Y-60500000D01*
X98750000Y-57000000D02*
X95250000Y-60500000D01*
X98750000Y-45750000D02*
X98750000Y-57000000D01*
X91200500Y-60500000D02*
X91000000Y-60700500D01*
%TO.N,D2*%
X84750000Y-56000000D02*
X87500000Y-58750000D01*
X83750000Y-51250000D02*
X84750000Y-52250000D01*
X84750000Y-52250000D02*
X84750000Y-56000000D01*
D22*
%TO.N,/USB_D+*%
X60762586Y-35489014D02*
X81150997Y-35489014D01*
X60500000Y-35751600D02*
X60762586Y-35489014D01*
X86763555Y-41101572D02*
X86763555Y-41472925D01*
X81150997Y-35489014D02*
X86763555Y-41101572D01*
D20*
%TO.N,nRST*%
X78750000Y-59750000D02*
X76250000Y-59750000D01*
X81392997Y-62392997D02*
X78750000Y-59750000D01*
X83392998Y-62392997D02*
X81392997Y-62392997D01*
%TO.N,I2C_SCL*%
X106000000Y-52500000D02*
X106000000Y-49000000D01*
X105500000Y-53000000D02*
X106000000Y-52500000D01*
%TO.N,I2C_SDA*%
X105000000Y-48500000D02*
X105000000Y-52000000D01*
X105500000Y-48000000D02*
X105000000Y-48500000D01*
%TO.N,GYRO_CS*%
X96970023Y-47970023D02*
X97029977Y-48029977D01*
X94970023Y-47970023D02*
X96970023Y-47970023D01*
%TO.N,DRDY*%
X95500000Y-51000000D02*
X87000000Y-51000000D01*
%TO.N,DEN*%
X91000000Y-59500000D02*
X94750500Y-59500000D01*
X94750500Y-59500000D02*
X96000000Y-58250500D01*
X87447122Y-61155731D02*
X89344269Y-61155731D01*
X89344269Y-61155731D02*
X91000000Y-59500000D01*
%TO.N,nrf_CE*%
X87999785Y-61974770D02*
X87197768Y-62776787D01*
X92275730Y-61974770D02*
X87999785Y-61974770D01*
X93000000Y-61250500D02*
X92275730Y-61974770D01*
D22*
%TO.N,/USB_D-*%
X60500000Y-34748400D02*
X60762586Y-35010986D01*
X87101572Y-40763555D02*
X87472925Y-40763555D01*
X81349003Y-35010986D02*
X87101572Y-40763555D01*
X60762586Y-35010986D02*
X81349003Y-35010986D01*
D20*
%TO.N,SWCLK*%
X78750000Y-56750000D02*
X79000000Y-57000000D01*
X78750000Y-54689339D02*
X78750000Y-56750000D01*
X76060661Y-52000000D02*
X78750000Y-54689339D01*
X74500000Y-52000000D02*
X76060661Y-52000000D01*
%TO.N,TDO*%
X75000000Y-55000000D02*
X75000000Y-56000000D01*
X76500000Y-53500000D02*
X75000000Y-55000000D01*
%TD*%
M02*
