%TF.GenerationSoftware,KiCad,Pcbnew,(6.0.9)*%
%TF.CreationDate,2022-12-05T13:16:43+00:00*%
%TF.ProjectId,stm32controller,73746d33-3263-46f6-9e74-726f6c6c6572,rev?*%
%TF.SameCoordinates,Original*%
%TF.FileFunction,Soldermask,Bot*%
%TF.FilePolarity,Negative*%
%FSLAX46Y46*%
G04 Gerber Fmt 4.6, Leading zero omitted, Abs format (unit mm)*
G04 Created by KiCad (PCBNEW (6.0.9)) date 2022-12-05 13:16:43*
%MOMM*%
%LPD*%
G01*
G04 APERTURE LIST*
%ADD10R,2.200000X2.200000*%
%ADD11C,2.200000*%
%ADD12C,1.700000*%
%ADD13R,1.700000X1.700000*%
%ADD14C,1.020000*%
%ADD15C,1.800000*%
%ADD16R,1.800000X1.800000*%
%ADD17C,8.000000*%
%ADD18C,4.400000*%
%ADD19O,1.700000X1.700000*%
G04 APERTURE END LIST*
D10*
%TO.C,J8*%
X65920000Y-86000000D03*
D11*
X68460000Y-86000000D03*
X71000000Y-86000000D03*
X73540000Y-86000000D03*
%TD*%
D12*
%TO.C,SW1*%
X66250000Y-68250000D03*
D13*
X66250000Y-61750000D03*
D12*
X61750000Y-61750000D03*
X61750000Y-68250000D03*
%TD*%
D14*
%TO.C,J10*%
X72710000Y-45020000D03*
X75250000Y-42480000D03*
X80330000Y-45020000D03*
D15*
X79060000Y-43750000D03*
D14*
X77790000Y-45020000D03*
D15*
X71440000Y-43750000D03*
D14*
X72710000Y-42480000D03*
X80330000Y-42480000D03*
X77790000Y-42480000D03*
X70170000Y-42480000D03*
X70170000Y-45020000D03*
X75250000Y-45020000D03*
%TD*%
D10*
%TO.C,J3*%
X50130000Y-86288345D03*
D11*
X52670000Y-86288345D03*
X55210000Y-86288345D03*
X57750000Y-86288345D03*
%TD*%
D16*
%TO.C,D1*%
X60670000Y-53000000D03*
D15*
X63210000Y-53000000D03*
%TD*%
D10*
%TO.C,J6*%
X80815000Y-30000000D03*
D11*
X78275000Y-30000000D03*
X75735000Y-30000000D03*
X73195000Y-30000000D03*
%TD*%
D10*
%TO.C,J5*%
X64815000Y-30000000D03*
D11*
X62275000Y-30000000D03*
X59735000Y-30000000D03*
X57195000Y-30000000D03*
%TD*%
D17*
%TO.C,H2*%
X38000000Y-32000000D03*
D18*
X38000000Y-32000000D03*
%TD*%
%TO.C,H4*%
X117000000Y-84000000D03*
D17*
X117000000Y-84000000D03*
%TD*%
D10*
%TO.C,J4*%
X96290000Y-30250000D03*
D11*
X93750000Y-30250000D03*
X91210000Y-30250000D03*
X88670000Y-30250000D03*
%TD*%
D13*
%TO.C,J1*%
X116250000Y-61250000D03*
D19*
X116250000Y-63790000D03*
X113710000Y-61250000D03*
X113710000Y-63790000D03*
X111170000Y-61250000D03*
X111170000Y-63790000D03*
X108630000Y-61250000D03*
X108630000Y-63790000D03*
%TD*%
D10*
%TO.C,J9*%
X80920000Y-86000000D03*
D11*
X83460000Y-86000000D03*
X86000000Y-86000000D03*
X88540000Y-86000000D03*
%TD*%
D18*
%TO.C,H3*%
X117000000Y-32000000D03*
D17*
X117000000Y-32000000D03*
%TD*%
D10*
%TO.C,J7*%
X36500000Y-47380000D03*
D11*
X36500000Y-49920000D03*
X36500000Y-52460000D03*
X36500000Y-55000000D03*
%TD*%
D18*
%TO.C,H1*%
X38000000Y-84000000D03*
D17*
X38000000Y-84000000D03*
%TD*%
M02*
