%TF.GenerationSoftware,KiCad,Pcbnew,(6.0.9)*%
%TF.CreationDate,2022-12-05T13:16:43+00:00*%
%TF.ProjectId,stm32controller,73746d33-3263-46f6-9e74-726f6c6c6572,rev?*%
%TF.SameCoordinates,Original*%
%TF.FileFunction,Paste,Top*%
%TF.FilePolarity,Positive*%
%FSLAX46Y46*%
G04 Gerber Fmt 4.6, Leading zero omitted, Abs format (unit mm)*
G04 Created by KiCad (PCBNEW (6.0.9)) date 2022-12-05 13:16:43*
%MOMM*%
%LPD*%
G01*
G04 APERTURE LIST*
G04 Aperture macros list*
%AMRoundRect*
0 Rectangle with rounded corners*
0 $1 Rounding radius*
0 $2 $3 $4 $5 $6 $7 $8 $9 X,Y pos of 4 corners*
0 Add a 4 corners polygon primitive as box body*
4,1,4,$2,$3,$4,$5,$6,$7,$8,$9,$2,$3,0*
0 Add four circle primitives for the rounded corners*
1,1,$1+$1,$2,$3*
1,1,$1+$1,$4,$5*
1,1,$1+$1,$6,$7*
1,1,$1+$1,$8,$9*
0 Add four rect primitives between the rounded corners*
20,1,$1+$1,$2,$3,$4,$5,0*
20,1,$1+$1,$4,$5,$6,$7,0*
20,1,$1+$1,$6,$7,$8,$9,0*
20,1,$1+$1,$8,$9,$2,$3,0*%
G04 Aperture macros list end*
%ADD10RoundRect,0.250000X0.475000X-0.337500X0.475000X0.337500X-0.475000X0.337500X-0.475000X-0.337500X0*%
%ADD11R,1.500000X2.000000*%
%ADD12R,3.800000X2.000000*%
%ADD13R,2.100000X1.800000*%
%ADD14RoundRect,0.250000X0.412500X0.650000X-0.412500X0.650000X-0.412500X-0.650000X0.412500X-0.650000X0*%
%ADD15R,1.020000X1.780000*%
%ADD16RoundRect,0.250000X-0.475000X0.337500X-0.475000X-0.337500X0.475000X-0.337500X0.475000X0.337500X0*%
%ADD17RoundRect,0.075000X0.075000X-0.662500X0.075000X0.662500X-0.075000X0.662500X-0.075000X-0.662500X0*%
%ADD18RoundRect,0.075000X0.662500X-0.075000X0.662500X0.075000X-0.662500X0.075000X-0.662500X-0.075000X0*%
%ADD19RoundRect,0.250000X0.337500X0.475000X-0.337500X0.475000X-0.337500X-0.475000X0.337500X-0.475000X0*%
%ADD20R,0.450000X1.380000*%
%ADD21R,1.425000X1.550000*%
%ADD22R,1.650000X1.300000*%
%ADD23R,1.800000X1.900000*%
%ADD24R,1.000000X1.900000*%
%ADD25RoundRect,0.250000X-0.650000X0.412500X-0.650000X-0.412500X0.650000X-0.412500X0.650000X0.412500X0*%
%ADD26RoundRect,0.250000X0.650000X-0.412500X0.650000X0.412500X-0.650000X0.412500X-0.650000X-0.412500X0*%
%ADD27RoundRect,0.250000X-0.337500X-0.475000X0.337500X-0.475000X0.337500X0.475000X-0.337500X0.475000X0*%
%ADD28RoundRect,0.250000X0.625000X-0.400000X0.625000X0.400000X-0.625000X0.400000X-0.625000X-0.400000X0*%
%ADD29RoundRect,0.100000X-0.100000X0.175000X-0.100000X-0.175000X0.100000X-0.175000X0.100000X0.175000X0*%
%ADD30RoundRect,0.100000X-0.175000X0.100000X-0.175000X-0.100000X0.175000X-0.100000X0.175000X0.100000X0*%
%ADD31R,1.600000X1.000000*%
%ADD32RoundRect,0.250000X-0.625000X0.400000X-0.625000X-0.400000X0.625000X-0.400000X0.625000X0.400000X0*%
%ADD33RoundRect,0.250000X-0.400000X-0.625000X0.400000X-0.625000X0.400000X0.625000X-0.400000X0.625000X0*%
%ADD34RoundRect,0.250000X-0.412500X-0.650000X0.412500X-0.650000X0.412500X0.650000X-0.412500X0.650000X0*%
G04 APERTURE END LIST*
D10*
%TO.C,C7*%
X90000000Y-55575000D03*
X90000000Y-53500000D03*
%TD*%
D11*
%TO.C,U2*%
X52970000Y-49850000D03*
D12*
X50670000Y-56150000D03*
D11*
X50670000Y-49850000D03*
X48370000Y-49850000D03*
%TD*%
D13*
%TO.C,Y1*%
X82500000Y-76300000D03*
X85400000Y-76300000D03*
X85400000Y-74000000D03*
X82500000Y-74000000D03*
%TD*%
D14*
%TO.C,C17*%
X111325000Y-53537500D03*
X108200000Y-53537500D03*
%TD*%
D15*
%TO.C,J10*%
X80330000Y-40840000D03*
X77790000Y-40840000D03*
X75250000Y-40840000D03*
X72710000Y-40840000D03*
X70170000Y-40840000D03*
X80330000Y-46660000D03*
X77790000Y-46660000D03*
X75250000Y-46660000D03*
X72710000Y-46660000D03*
X70170000Y-46660000D03*
%TD*%
D16*
%TO.C,C10*%
X87000000Y-69000000D03*
X87000000Y-71075000D03*
%TD*%
D17*
%TO.C,U1*%
X82350000Y-65362500D03*
X82850000Y-65362500D03*
X83350000Y-65362500D03*
X83850000Y-65362500D03*
X84350000Y-65362500D03*
X84850000Y-65362500D03*
X85350000Y-65362500D03*
X85850000Y-65362500D03*
X86350000Y-65362500D03*
X86850000Y-65362500D03*
X87350000Y-65362500D03*
X87850000Y-65362500D03*
D18*
X89262500Y-63950000D03*
X89262500Y-63450000D03*
X89262500Y-62950000D03*
X89262500Y-62450000D03*
X89262500Y-61950000D03*
X89262500Y-61450000D03*
X89262500Y-60950000D03*
X89262500Y-60450000D03*
X89262500Y-59950000D03*
X89262500Y-59450000D03*
X89262500Y-58950000D03*
X89262500Y-58450000D03*
D17*
X87850000Y-57037500D03*
X87350000Y-57037500D03*
X86850000Y-57037500D03*
X86350000Y-57037500D03*
X85850000Y-57037500D03*
X85350000Y-57037500D03*
X84850000Y-57037500D03*
X84350000Y-57037500D03*
X83850000Y-57037500D03*
X83350000Y-57037500D03*
X82850000Y-57037500D03*
X82350000Y-57037500D03*
D18*
X80937500Y-58450000D03*
X80937500Y-58950000D03*
X80937500Y-59450000D03*
X80937500Y-59950000D03*
X80937500Y-60450000D03*
X80937500Y-60950000D03*
X80937500Y-61450000D03*
X80937500Y-61950000D03*
X80937500Y-62450000D03*
X80937500Y-62950000D03*
X80937500Y-63450000D03*
X80937500Y-63950000D03*
%TD*%
D19*
%TO.C,C1*%
X61250000Y-58500000D03*
X59175000Y-58500000D03*
%TD*%
D20*
%TO.C,J2*%
X49550000Y-30810000D03*
X48900000Y-30810000D03*
X48250000Y-30810000D03*
X47600000Y-30810000D03*
X46950000Y-30810000D03*
D21*
X50737500Y-30725000D03*
D22*
X44875000Y-28150000D03*
X51625000Y-28150000D03*
D21*
X45762500Y-30725000D03*
D23*
X49400000Y-28150000D03*
D24*
X46700000Y-28150000D03*
%TD*%
D25*
%TO.C,C12*%
X43000000Y-49875000D03*
X43000000Y-53000000D03*
%TD*%
D26*
%TO.C,C3*%
X78500000Y-76625000D03*
X78500000Y-73500000D03*
%TD*%
D27*
%TO.C,C14*%
X109300000Y-44725000D03*
X111375000Y-44725000D03*
%TD*%
D14*
%TO.C,C2*%
X75500000Y-65000000D03*
X72375000Y-65000000D03*
%TD*%
D28*
%TO.C,R5*%
X52500000Y-40600000D03*
X52500000Y-37500000D03*
%TD*%
D26*
%TO.C,C16*%
X106800000Y-44787500D03*
X106800000Y-41662500D03*
%TD*%
D10*
%TO.C,C6*%
X81750000Y-54250000D03*
X81750000Y-52175000D03*
%TD*%
D26*
%TO.C,C11*%
X93000000Y-54125000D03*
X93000000Y-51000000D03*
%TD*%
D29*
%TO.C,U3*%
X106775000Y-47275000D03*
X106125000Y-47275000D03*
X105475000Y-47275000D03*
X104825000Y-47275000D03*
D30*
X104100000Y-48000000D03*
X104100000Y-48650000D03*
X104100000Y-49300000D03*
X104100000Y-49950000D03*
D29*
X104825000Y-50675000D03*
X105475000Y-50675000D03*
X106125000Y-50675000D03*
X106775000Y-50675000D03*
D30*
X107500000Y-49950000D03*
X107500000Y-49300000D03*
X107500000Y-48650000D03*
X107500000Y-48000000D03*
%TD*%
D16*
%TO.C,C9*%
X78500000Y-65500000D03*
X78500000Y-67575000D03*
%TD*%
D19*
%TO.C,C4*%
X79750000Y-55750000D03*
X77675000Y-55750000D03*
%TD*%
D16*
%TO.C,C15*%
X111200000Y-47537500D03*
X111200000Y-49612500D03*
%TD*%
D31*
%TO.C,SW2*%
X50200000Y-69500000D03*
X50200000Y-72000000D03*
X50200000Y-74500000D03*
X47800000Y-69500000D03*
X47800000Y-72000000D03*
X47800000Y-74500000D03*
%TD*%
D32*
%TO.C,R1*%
X56000000Y-74000000D03*
X56000000Y-77100000D03*
%TD*%
D25*
%TO.C,C5*%
X90000000Y-73437500D03*
X90000000Y-76562500D03*
%TD*%
D33*
%TO.C,R6*%
X60855000Y-45000000D03*
X63955000Y-45000000D03*
%TD*%
D34*
%TO.C,C13*%
X53280000Y-45000000D03*
X56405000Y-45000000D03*
%TD*%
D27*
%TO.C,C8*%
X92500000Y-57000000D03*
X94575000Y-57000000D03*
%TD*%
M02*
