%TF.GenerationSoftware,KiCad,Pcbnew,(6.0.9)*%
%TF.CreationDate,2022-12-05T13:16:43+00:00*%
%TF.ProjectId,stm32controller,73746d33-3263-46f6-9e74-726f6c6c6572,rev?*%
%TF.SameCoordinates,Original*%
%TF.FileFunction,Legend,Top*%
%TF.FilePolarity,Positive*%
%FSLAX46Y46*%
G04 Gerber Fmt 4.6, Leading zero omitted, Abs format (unit mm)*
G04 Created by KiCad (PCBNEW (6.0.9)) date 2022-12-05 13:16:43*
%MOMM*%
%LPD*%
G01*
G04 APERTURE LIST*
%ADD10C,0.150000*%
%ADD11C,0.120000*%
G04 APERTURE END LIST*
D10*
X58654761Y-55166666D02*
X58702380Y-55023809D01*
X58702380Y-54785714D01*
X58654761Y-54690476D01*
X58607142Y-54642857D01*
X58511904Y-54595238D01*
X58416666Y-54595238D01*
X58321428Y-54642857D01*
X58273809Y-54690476D01*
X58226190Y-54785714D01*
X58178571Y-54976190D01*
X58130952Y-55071428D01*
X58083333Y-55119047D01*
X57988095Y-55166666D01*
X57892857Y-55166666D01*
X57797619Y-55119047D01*
X57750000Y-55071428D01*
X57702380Y-54976190D01*
X57702380Y-54738095D01*
X57750000Y-54595238D01*
X58035714Y-54309523D02*
X58035714Y-53928571D01*
X57702380Y-54166666D02*
X58559523Y-54166666D01*
X58654761Y-54119047D01*
X58702380Y-54023809D01*
X58702380Y-53928571D01*
X58702380Y-53166666D02*
X58178571Y-53166666D01*
X58083333Y-53214285D01*
X58035714Y-53309523D01*
X58035714Y-53500000D01*
X58083333Y-53595238D01*
X58654761Y-53166666D02*
X58702380Y-53261904D01*
X58702380Y-53500000D01*
X58654761Y-53595238D01*
X58559523Y-53642857D01*
X58464285Y-53642857D01*
X58369047Y-53595238D01*
X58321428Y-53500000D01*
X58321428Y-53261904D01*
X58273809Y-53166666D01*
X58035714Y-52833333D02*
X58035714Y-52452380D01*
X57702380Y-52690476D02*
X58559523Y-52690476D01*
X58654761Y-52642857D01*
X58702380Y-52547619D01*
X58702380Y-52452380D01*
X58035714Y-51690476D02*
X58702380Y-51690476D01*
X58035714Y-52119047D02*
X58559523Y-52119047D01*
X58654761Y-52071428D01*
X58702380Y-51976190D01*
X58702380Y-51833333D01*
X58654761Y-51738095D01*
X58607142Y-51690476D01*
X58654761Y-51261904D02*
X58702380Y-51166666D01*
X58702380Y-50976190D01*
X58654761Y-50880952D01*
X58559523Y-50833333D01*
X58511904Y-50833333D01*
X58416666Y-50880952D01*
X58369047Y-50976190D01*
X58369047Y-51119047D01*
X58321428Y-51214285D01*
X58226190Y-51261904D01*
X58178571Y-51261904D01*
X58083333Y-51214285D01*
X58035714Y-51119047D01*
X58035714Y-50976190D01*
X58083333Y-50880952D01*
X71642857Y-38904761D02*
X71785714Y-38952380D01*
X72023809Y-38952380D01*
X72119047Y-38904761D01*
X72166666Y-38857142D01*
X72214285Y-38761904D01*
X72214285Y-38666666D01*
X72166666Y-38571428D01*
X72119047Y-38523809D01*
X72023809Y-38476190D01*
X71833333Y-38428571D01*
X71738095Y-38380952D01*
X71690476Y-38333333D01*
X71642857Y-38238095D01*
X71642857Y-38142857D01*
X71690476Y-38047619D01*
X71738095Y-38000000D01*
X71833333Y-37952380D01*
X72071428Y-37952380D01*
X72214285Y-38000000D01*
X72547619Y-37952380D02*
X72785714Y-38952380D01*
X72976190Y-38238095D01*
X73166666Y-38952380D01*
X73404761Y-37952380D01*
X73785714Y-38952380D02*
X73785714Y-37952380D01*
X74023809Y-37952380D01*
X74166666Y-38000000D01*
X74261904Y-38095238D01*
X74309523Y-38190476D01*
X74357142Y-38380952D01*
X74357142Y-38523809D01*
X74309523Y-38714285D01*
X74261904Y-38809523D01*
X74166666Y-38904761D01*
X74023809Y-38952380D01*
X73785714Y-38952380D01*
X35488095Y-58000000D02*
X35392857Y-57952380D01*
X35250000Y-57952380D01*
X35107142Y-58000000D01*
X35011904Y-58095238D01*
X34964285Y-58190476D01*
X34916666Y-58380952D01*
X34916666Y-58523809D01*
X34964285Y-58714285D01*
X35011904Y-58809523D01*
X35107142Y-58904761D01*
X35250000Y-58952380D01*
X35345238Y-58952380D01*
X35488095Y-58904761D01*
X35535714Y-58857142D01*
X35535714Y-58523809D01*
X35345238Y-58523809D01*
X35964285Y-58952380D02*
X35964285Y-57952380D01*
X36535714Y-58952380D01*
X36535714Y-57952380D01*
X37011904Y-58952380D02*
X37011904Y-57952380D01*
X37250000Y-57952380D01*
X37392857Y-58000000D01*
X37488095Y-58095238D01*
X37535714Y-58190476D01*
X37583333Y-58380952D01*
X37583333Y-58523809D01*
X37535714Y-58714285D01*
X37488095Y-58809523D01*
X37392857Y-58904761D01*
X37250000Y-58952380D01*
X37011904Y-58952380D01*
X35166666Y-43702380D02*
X35500000Y-44702380D01*
X35833333Y-43702380D01*
X36738095Y-44607142D02*
X36690476Y-44654761D01*
X36547619Y-44702380D01*
X36452380Y-44702380D01*
X36309523Y-44654761D01*
X36214285Y-44559523D01*
X36166666Y-44464285D01*
X36119047Y-44273809D01*
X36119047Y-44130952D01*
X36166666Y-43940476D01*
X36214285Y-43845238D01*
X36309523Y-43750000D01*
X36452380Y-43702380D01*
X36547619Y-43702380D01*
X36690476Y-43750000D01*
X36738095Y-43797619D01*
X37738095Y-44607142D02*
X37690476Y-44654761D01*
X37547619Y-44702380D01*
X37452380Y-44702380D01*
X37309523Y-44654761D01*
X37214285Y-44559523D01*
X37166666Y-44464285D01*
X37119047Y-44273809D01*
X37119047Y-44130952D01*
X37166666Y-43940476D01*
X37214285Y-43845238D01*
X37309523Y-43750000D01*
X37452380Y-43702380D01*
X37547619Y-43702380D01*
X37690476Y-43750000D01*
X37738095Y-43797619D01*
X112285714Y-58952380D02*
X112285714Y-57952380D01*
X112857142Y-58952380D01*
X112857142Y-57952380D01*
X113904761Y-58952380D02*
X113571428Y-58476190D01*
X113333333Y-58952380D02*
X113333333Y-57952380D01*
X113714285Y-57952380D01*
X113809523Y-58000000D01*
X113857142Y-58047619D01*
X113904761Y-58142857D01*
X113904761Y-58285714D01*
X113857142Y-58380952D01*
X113809523Y-58428571D01*
X113714285Y-58476190D01*
X113333333Y-58476190D01*
X114666666Y-58428571D02*
X114333333Y-58428571D01*
X114333333Y-58952380D02*
X114333333Y-57952380D01*
X114809523Y-57952380D01*
%TO.C,C7*%
X88357142Y-54916666D02*
X88404761Y-54964285D01*
X88452380Y-55107142D01*
X88452380Y-55202380D01*
X88404761Y-55345238D01*
X88309523Y-55440476D01*
X88214285Y-55488095D01*
X88023809Y-55535714D01*
X87880952Y-55535714D01*
X87690476Y-55488095D01*
X87595238Y-55440476D01*
X87500000Y-55345238D01*
X87452380Y-55202380D01*
X87452380Y-55107142D01*
X87500000Y-54964285D01*
X87547619Y-54916666D01*
X87452380Y-54583333D02*
X87452380Y-53916666D01*
X88452380Y-54345238D01*
%TO.C,U2*%
X54622380Y-53761904D02*
X55431904Y-53761904D01*
X55527142Y-53714285D01*
X55574761Y-53666666D01*
X55622380Y-53571428D01*
X55622380Y-53380952D01*
X55574761Y-53285714D01*
X55527142Y-53238095D01*
X55431904Y-53190476D01*
X54622380Y-53190476D01*
X54717619Y-52761904D02*
X54670000Y-52714285D01*
X54622380Y-52619047D01*
X54622380Y-52380952D01*
X54670000Y-52285714D01*
X54717619Y-52238095D01*
X54812857Y-52190476D01*
X54908095Y-52190476D01*
X55050952Y-52238095D01*
X55622380Y-52809523D01*
X55622380Y-52190476D01*
%TO.C,Y1*%
X80023809Y-75226190D02*
X80023809Y-75702380D01*
X79690476Y-74702380D02*
X80023809Y-75226190D01*
X80357142Y-74702380D01*
X81214285Y-75702380D02*
X80642857Y-75702380D01*
X80928571Y-75702380D02*
X80928571Y-74702380D01*
X80833333Y-74845238D01*
X80738095Y-74940476D01*
X80642857Y-74988095D01*
%TO.C,J8*%
X66166666Y-81292380D02*
X66166666Y-82006666D01*
X66119047Y-82149523D01*
X66023809Y-82244761D01*
X65880952Y-82292380D01*
X65785714Y-82292380D01*
X66785714Y-81720952D02*
X66690476Y-81673333D01*
X66642857Y-81625714D01*
X66595238Y-81530476D01*
X66595238Y-81482857D01*
X66642857Y-81387619D01*
X66690476Y-81340000D01*
X66785714Y-81292380D01*
X66976190Y-81292380D01*
X67071428Y-81340000D01*
X67119047Y-81387619D01*
X67166666Y-81482857D01*
X67166666Y-81530476D01*
X67119047Y-81625714D01*
X67071428Y-81673333D01*
X66976190Y-81720952D01*
X66785714Y-81720952D01*
X66690476Y-81768571D01*
X66642857Y-81816190D01*
X66595238Y-81911428D01*
X66595238Y-82101904D01*
X66642857Y-82197142D01*
X66690476Y-82244761D01*
X66785714Y-82292380D01*
X66976190Y-82292380D01*
X67071428Y-82244761D01*
X67119047Y-82197142D01*
X67166666Y-82101904D01*
X67166666Y-81911428D01*
X67119047Y-81816190D01*
X67071428Y-81768571D01*
X66976190Y-81720952D01*
%TO.C,SW1*%
X68654761Y-66483333D02*
X68702380Y-66340476D01*
X68702380Y-66102380D01*
X68654761Y-66007142D01*
X68607142Y-65959523D01*
X68511904Y-65911904D01*
X68416666Y-65911904D01*
X68321428Y-65959523D01*
X68273809Y-66007142D01*
X68226190Y-66102380D01*
X68178571Y-66292857D01*
X68130952Y-66388095D01*
X68083333Y-66435714D01*
X67988095Y-66483333D01*
X67892857Y-66483333D01*
X67797619Y-66435714D01*
X67750000Y-66388095D01*
X67702380Y-66292857D01*
X67702380Y-66054761D01*
X67750000Y-65911904D01*
X67702380Y-65578571D02*
X68702380Y-65340476D01*
X67988095Y-65150000D01*
X68702380Y-64959523D01*
X67702380Y-64721428D01*
X68702380Y-63816666D02*
X68702380Y-64388095D01*
X68702380Y-64102380D02*
X67702380Y-64102380D01*
X67845238Y-64197619D01*
X67940476Y-64292857D01*
X67988095Y-64388095D01*
%TO.C,C17*%
X109607142Y-55744642D02*
X109559523Y-55792261D01*
X109416666Y-55839880D01*
X109321428Y-55839880D01*
X109178571Y-55792261D01*
X109083333Y-55697023D01*
X109035714Y-55601785D01*
X108988095Y-55411309D01*
X108988095Y-55268452D01*
X109035714Y-55077976D01*
X109083333Y-54982738D01*
X109178571Y-54887500D01*
X109321428Y-54839880D01*
X109416666Y-54839880D01*
X109559523Y-54887500D01*
X109607142Y-54935119D01*
X110559523Y-55839880D02*
X109988095Y-55839880D01*
X110273809Y-55839880D02*
X110273809Y-54839880D01*
X110178571Y-54982738D01*
X110083333Y-55077976D01*
X109988095Y-55125595D01*
X110892857Y-54839880D02*
X111559523Y-54839880D01*
X111130952Y-55839880D01*
%TO.C,J10*%
X82252380Y-44559523D02*
X82966666Y-44559523D01*
X83109523Y-44607142D01*
X83204761Y-44702380D01*
X83252380Y-44845238D01*
X83252380Y-44940476D01*
X83252380Y-43559523D02*
X83252380Y-44130952D01*
X83252380Y-43845238D02*
X82252380Y-43845238D01*
X82395238Y-43940476D01*
X82490476Y-44035714D01*
X82538095Y-44130952D01*
X82252380Y-42940476D02*
X82252380Y-42845238D01*
X82300000Y-42750000D01*
X82347619Y-42702380D01*
X82442857Y-42654761D01*
X82633333Y-42607142D01*
X82871428Y-42607142D01*
X83061904Y-42654761D01*
X83157142Y-42702380D01*
X83204761Y-42750000D01*
X83252380Y-42845238D01*
X83252380Y-42940476D01*
X83204761Y-43035714D01*
X83157142Y-43083333D01*
X83061904Y-43130952D01*
X82871428Y-43178571D01*
X82633333Y-43178571D01*
X82442857Y-43130952D01*
X82347619Y-43083333D01*
X82300000Y-43035714D01*
X82252380Y-42940476D01*
%TO.C,C10*%
X89037142Y-70680357D02*
X89084761Y-70727976D01*
X89132380Y-70870833D01*
X89132380Y-70966071D01*
X89084761Y-71108928D01*
X88989523Y-71204166D01*
X88894285Y-71251785D01*
X88703809Y-71299404D01*
X88560952Y-71299404D01*
X88370476Y-71251785D01*
X88275238Y-71204166D01*
X88180000Y-71108928D01*
X88132380Y-70966071D01*
X88132380Y-70870833D01*
X88180000Y-70727976D01*
X88227619Y-70680357D01*
X89132380Y-69727976D02*
X89132380Y-70299404D01*
X89132380Y-70013690D02*
X88132380Y-70013690D01*
X88275238Y-70108928D01*
X88370476Y-70204166D01*
X88418095Y-70299404D01*
X88132380Y-69108928D02*
X88132380Y-69013690D01*
X88180000Y-68918452D01*
X88227619Y-68870833D01*
X88322857Y-68823214D01*
X88513333Y-68775595D01*
X88751428Y-68775595D01*
X88941904Y-68823214D01*
X89037142Y-68870833D01*
X89084761Y-68918452D01*
X89132380Y-69013690D01*
X89132380Y-69108928D01*
X89084761Y-69204166D01*
X89037142Y-69251785D01*
X88941904Y-69299404D01*
X88751428Y-69347023D01*
X88513333Y-69347023D01*
X88322857Y-69299404D01*
X88227619Y-69251785D01*
X88180000Y-69204166D01*
X88132380Y-69108928D01*
%TO.C,J3*%
X46916666Y-85740725D02*
X46916666Y-86455011D01*
X46869047Y-86597868D01*
X46773809Y-86693106D01*
X46630952Y-86740725D01*
X46535714Y-86740725D01*
X47297619Y-85740725D02*
X47916666Y-85740725D01*
X47583333Y-86121678D01*
X47726190Y-86121678D01*
X47821428Y-86169297D01*
X47869047Y-86216916D01*
X47916666Y-86312154D01*
X47916666Y-86550249D01*
X47869047Y-86645487D01*
X47821428Y-86693106D01*
X47726190Y-86740725D01*
X47440476Y-86740725D01*
X47345238Y-86693106D01*
X47297619Y-86645487D01*
%TO.C,D1*%
X61201904Y-49992380D02*
X61201904Y-48992380D01*
X61440000Y-48992380D01*
X61582857Y-49040000D01*
X61678095Y-49135238D01*
X61725714Y-49230476D01*
X61773333Y-49420952D01*
X61773333Y-49563809D01*
X61725714Y-49754285D01*
X61678095Y-49849523D01*
X61582857Y-49944761D01*
X61440000Y-49992380D01*
X61201904Y-49992380D01*
X62725714Y-49992380D02*
X62154285Y-49992380D01*
X62440000Y-49992380D02*
X62440000Y-48992380D01*
X62344761Y-49135238D01*
X62249523Y-49230476D01*
X62154285Y-49278095D01*
%TO.C,J6*%
X74916666Y-33702380D02*
X74916666Y-34416666D01*
X74869047Y-34559523D01*
X74773809Y-34654761D01*
X74630952Y-34702380D01*
X74535714Y-34702380D01*
X75821428Y-33702380D02*
X75630952Y-33702380D01*
X75535714Y-33750000D01*
X75488095Y-33797619D01*
X75392857Y-33940476D01*
X75345238Y-34130952D01*
X75345238Y-34511904D01*
X75392857Y-34607142D01*
X75440476Y-34654761D01*
X75535714Y-34702380D01*
X75726190Y-34702380D01*
X75821428Y-34654761D01*
X75869047Y-34607142D01*
X75916666Y-34511904D01*
X75916666Y-34273809D01*
X75869047Y-34178571D01*
X75821428Y-34130952D01*
X75726190Y-34083333D01*
X75535714Y-34083333D01*
X75440476Y-34130952D01*
X75392857Y-34178571D01*
X75345238Y-34273809D01*
%TO.C,U1*%
X78702380Y-61961904D02*
X79511904Y-61961904D01*
X79607142Y-61914285D01*
X79654761Y-61866666D01*
X79702380Y-61771428D01*
X79702380Y-61580952D01*
X79654761Y-61485714D01*
X79607142Y-61438095D01*
X79511904Y-61390476D01*
X78702380Y-61390476D01*
X79702380Y-60390476D02*
X79702380Y-60961904D01*
X79702380Y-60676190D02*
X78702380Y-60676190D01*
X78845238Y-60771428D01*
X78940476Y-60866666D01*
X78988095Y-60961904D01*
%TO.C,C1*%
X60045833Y-60537142D02*
X59998214Y-60584761D01*
X59855357Y-60632380D01*
X59760119Y-60632380D01*
X59617261Y-60584761D01*
X59522023Y-60489523D01*
X59474404Y-60394285D01*
X59426785Y-60203809D01*
X59426785Y-60060952D01*
X59474404Y-59870476D01*
X59522023Y-59775238D01*
X59617261Y-59680000D01*
X59760119Y-59632380D01*
X59855357Y-59632380D01*
X59998214Y-59680000D01*
X60045833Y-59727619D01*
X60998214Y-60632380D02*
X60426785Y-60632380D01*
X60712500Y-60632380D02*
X60712500Y-59632380D01*
X60617261Y-59775238D01*
X60522023Y-59870476D01*
X60426785Y-59918095D01*
%TO.C,J2*%
X50166666Y-32452380D02*
X50166666Y-33166666D01*
X50119047Y-33309523D01*
X50023809Y-33404761D01*
X49880952Y-33452380D01*
X49785714Y-33452380D01*
X50595238Y-32547619D02*
X50642857Y-32500000D01*
X50738095Y-32452380D01*
X50976190Y-32452380D01*
X51071428Y-32500000D01*
X51119047Y-32547619D01*
X51166666Y-32642857D01*
X51166666Y-32738095D01*
X51119047Y-32880952D01*
X50547619Y-33452380D01*
X51166666Y-33452380D01*
%TO.C,J5*%
X58916666Y-33612380D02*
X58916666Y-34326666D01*
X58869047Y-34469523D01*
X58773809Y-34564761D01*
X58630952Y-34612380D01*
X58535714Y-34612380D01*
X59869047Y-33612380D02*
X59392857Y-33612380D01*
X59345238Y-34088571D01*
X59392857Y-34040952D01*
X59488095Y-33993333D01*
X59726190Y-33993333D01*
X59821428Y-34040952D01*
X59869047Y-34088571D01*
X59916666Y-34183809D01*
X59916666Y-34421904D01*
X59869047Y-34517142D01*
X59821428Y-34564761D01*
X59726190Y-34612380D01*
X59488095Y-34612380D01*
X59392857Y-34564761D01*
X59345238Y-34517142D01*
%TO.C,C12*%
X45257142Y-51330357D02*
X45304761Y-51377976D01*
X45352380Y-51520833D01*
X45352380Y-51616071D01*
X45304761Y-51758928D01*
X45209523Y-51854166D01*
X45114285Y-51901785D01*
X44923809Y-51949404D01*
X44780952Y-51949404D01*
X44590476Y-51901785D01*
X44495238Y-51854166D01*
X44400000Y-51758928D01*
X44352380Y-51616071D01*
X44352380Y-51520833D01*
X44400000Y-51377976D01*
X44447619Y-51330357D01*
X45352380Y-50377976D02*
X45352380Y-50949404D01*
X45352380Y-50663690D02*
X44352380Y-50663690D01*
X44495238Y-50758928D01*
X44590476Y-50854166D01*
X44638095Y-50949404D01*
X44447619Y-49997023D02*
X44400000Y-49949404D01*
X44352380Y-49854166D01*
X44352380Y-49616071D01*
X44400000Y-49520833D01*
X44447619Y-49473214D01*
X44542857Y-49425595D01*
X44638095Y-49425595D01*
X44780952Y-49473214D01*
X45352380Y-50044642D01*
X45352380Y-49425595D01*
%TO.C,C3*%
X77107142Y-75229166D02*
X77154761Y-75276785D01*
X77202380Y-75419642D01*
X77202380Y-75514880D01*
X77154761Y-75657738D01*
X77059523Y-75752976D01*
X76964285Y-75800595D01*
X76773809Y-75848214D01*
X76630952Y-75848214D01*
X76440476Y-75800595D01*
X76345238Y-75752976D01*
X76250000Y-75657738D01*
X76202380Y-75514880D01*
X76202380Y-75419642D01*
X76250000Y-75276785D01*
X76297619Y-75229166D01*
X76202380Y-74895833D02*
X76202380Y-74276785D01*
X76583333Y-74610119D01*
X76583333Y-74467261D01*
X76630952Y-74372023D01*
X76678571Y-74324404D01*
X76773809Y-74276785D01*
X77011904Y-74276785D01*
X77107142Y-74324404D01*
X77154761Y-74372023D01*
X77202380Y-74467261D01*
X77202380Y-74752976D01*
X77154761Y-74848214D01*
X77107142Y-74895833D01*
%TO.C,H2*%
X37238095Y-27452380D02*
X37238095Y-26452380D01*
X37238095Y-26928571D02*
X37809523Y-26928571D01*
X37809523Y-27452380D02*
X37809523Y-26452380D01*
X38238095Y-26547619D02*
X38285714Y-26500000D01*
X38380952Y-26452380D01*
X38619047Y-26452380D01*
X38714285Y-26500000D01*
X38761904Y-26547619D01*
X38809523Y-26642857D01*
X38809523Y-26738095D01*
X38761904Y-26880952D01*
X38190476Y-27452380D01*
X38809523Y-27452380D01*
%TO.C,C14*%
X110857142Y-43402142D02*
X110809523Y-43449761D01*
X110666666Y-43497380D01*
X110571428Y-43497380D01*
X110428571Y-43449761D01*
X110333333Y-43354523D01*
X110285714Y-43259285D01*
X110238095Y-43068809D01*
X110238095Y-42925952D01*
X110285714Y-42735476D01*
X110333333Y-42640238D01*
X110428571Y-42545000D01*
X110571428Y-42497380D01*
X110666666Y-42497380D01*
X110809523Y-42545000D01*
X110857142Y-42592619D01*
X111809523Y-43497380D02*
X111238095Y-43497380D01*
X111523809Y-43497380D02*
X111523809Y-42497380D01*
X111428571Y-42640238D01*
X111333333Y-42735476D01*
X111238095Y-42783095D01*
X112666666Y-42830714D02*
X112666666Y-43497380D01*
X112428571Y-42449761D02*
X112190476Y-43164047D01*
X112809523Y-43164047D01*
%TO.C,H4*%
X116238095Y-79452380D02*
X116238095Y-78452380D01*
X116238095Y-78928571D02*
X116809523Y-78928571D01*
X116809523Y-79452380D02*
X116809523Y-78452380D01*
X117714285Y-78785714D02*
X117714285Y-79452380D01*
X117476190Y-78404761D02*
X117238095Y-79119047D01*
X117857142Y-79119047D01*
%TO.C,J4*%
X92146666Y-33862380D02*
X92146666Y-34576666D01*
X92099047Y-34719523D01*
X92003809Y-34814761D01*
X91860952Y-34862380D01*
X91765714Y-34862380D01*
X93051428Y-34195714D02*
X93051428Y-34862380D01*
X92813333Y-33814761D02*
X92575238Y-34529047D01*
X93194285Y-34529047D01*
%TO.C,C2*%
X74357142Y-67666666D02*
X74404761Y-67714285D01*
X74452380Y-67857142D01*
X74452380Y-67952380D01*
X74404761Y-68095238D01*
X74309523Y-68190476D01*
X74214285Y-68238095D01*
X74023809Y-68285714D01*
X73880952Y-68285714D01*
X73690476Y-68238095D01*
X73595238Y-68190476D01*
X73500000Y-68095238D01*
X73452380Y-67952380D01*
X73452380Y-67857142D01*
X73500000Y-67714285D01*
X73547619Y-67666666D01*
X73547619Y-67285714D02*
X73500000Y-67238095D01*
X73452380Y-67142857D01*
X73452380Y-66904761D01*
X73500000Y-66809523D01*
X73547619Y-66761904D01*
X73642857Y-66714285D01*
X73738095Y-66714285D01*
X73880952Y-66761904D01*
X74452380Y-67333333D01*
X74452380Y-66714285D01*
%TO.C,R5*%
X50952380Y-39766666D02*
X50476190Y-40100000D01*
X50952380Y-40338095D02*
X49952380Y-40338095D01*
X49952380Y-39957142D01*
X50000000Y-39861904D01*
X50047619Y-39814285D01*
X50142857Y-39766666D01*
X50285714Y-39766666D01*
X50380952Y-39814285D01*
X50428571Y-39861904D01*
X50476190Y-39957142D01*
X50476190Y-40338095D01*
X49952380Y-38861904D02*
X49952380Y-39338095D01*
X50428571Y-39385714D01*
X50380952Y-39338095D01*
X50333333Y-39242857D01*
X50333333Y-39004761D01*
X50380952Y-38909523D01*
X50428571Y-38861904D01*
X50523809Y-38814285D01*
X50761904Y-38814285D01*
X50857142Y-38861904D01*
X50904761Y-38909523D01*
X50952380Y-39004761D01*
X50952380Y-39242857D01*
X50904761Y-39338095D01*
X50857142Y-39385714D01*
%TO.C,C16*%
X105107142Y-43392857D02*
X105154761Y-43440476D01*
X105202380Y-43583333D01*
X105202380Y-43678571D01*
X105154761Y-43821428D01*
X105059523Y-43916666D01*
X104964285Y-43964285D01*
X104773809Y-44011904D01*
X104630952Y-44011904D01*
X104440476Y-43964285D01*
X104345238Y-43916666D01*
X104250000Y-43821428D01*
X104202380Y-43678571D01*
X104202380Y-43583333D01*
X104250000Y-43440476D01*
X104297619Y-43392857D01*
X105202380Y-42440476D02*
X105202380Y-43011904D01*
X105202380Y-42726190D02*
X104202380Y-42726190D01*
X104345238Y-42821428D01*
X104440476Y-42916666D01*
X104488095Y-43011904D01*
X104202380Y-41583333D02*
X104202380Y-41773809D01*
X104250000Y-41869047D01*
X104297619Y-41916666D01*
X104440476Y-42011904D01*
X104630952Y-42059523D01*
X105011904Y-42059523D01*
X105107142Y-42011904D01*
X105154761Y-41964285D01*
X105202380Y-41869047D01*
X105202380Y-41678571D01*
X105154761Y-41583333D01*
X105107142Y-41535714D01*
X105011904Y-41488095D01*
X104773809Y-41488095D01*
X104678571Y-41535714D01*
X104630952Y-41583333D01*
X104583333Y-41678571D01*
X104583333Y-41869047D01*
X104630952Y-41964285D01*
X104678571Y-42011904D01*
X104773809Y-42059523D01*
%TO.C,C6*%
X80427142Y-53379166D02*
X80474761Y-53426785D01*
X80522380Y-53569642D01*
X80522380Y-53664880D01*
X80474761Y-53807738D01*
X80379523Y-53902976D01*
X80284285Y-53950595D01*
X80093809Y-53998214D01*
X79950952Y-53998214D01*
X79760476Y-53950595D01*
X79665238Y-53902976D01*
X79570000Y-53807738D01*
X79522380Y-53664880D01*
X79522380Y-53569642D01*
X79570000Y-53426785D01*
X79617619Y-53379166D01*
X79522380Y-52522023D02*
X79522380Y-52712500D01*
X79570000Y-52807738D01*
X79617619Y-52855357D01*
X79760476Y-52950595D01*
X79950952Y-52998214D01*
X80331904Y-52998214D01*
X80427142Y-52950595D01*
X80474761Y-52902976D01*
X80522380Y-52807738D01*
X80522380Y-52617261D01*
X80474761Y-52522023D01*
X80427142Y-52474404D01*
X80331904Y-52426785D01*
X80093809Y-52426785D01*
X79998571Y-52474404D01*
X79950952Y-52522023D01*
X79903333Y-52617261D01*
X79903333Y-52807738D01*
X79950952Y-52902976D01*
X79998571Y-52950595D01*
X80093809Y-52998214D01*
%TO.C,C11*%
X95357142Y-52892857D02*
X95404761Y-52940476D01*
X95452380Y-53083333D01*
X95452380Y-53178571D01*
X95404761Y-53321428D01*
X95309523Y-53416666D01*
X95214285Y-53464285D01*
X95023809Y-53511904D01*
X94880952Y-53511904D01*
X94690476Y-53464285D01*
X94595238Y-53416666D01*
X94500000Y-53321428D01*
X94452380Y-53178571D01*
X94452380Y-53083333D01*
X94500000Y-52940476D01*
X94547619Y-52892857D01*
X95452380Y-51940476D02*
X95452380Y-52511904D01*
X95452380Y-52226190D02*
X94452380Y-52226190D01*
X94595238Y-52321428D01*
X94690476Y-52416666D01*
X94738095Y-52511904D01*
X95452380Y-50988095D02*
X95452380Y-51559523D01*
X95452380Y-51273809D02*
X94452380Y-51273809D01*
X94595238Y-51369047D01*
X94690476Y-51464285D01*
X94738095Y-51559523D01*
%TO.C,J1*%
X118032380Y-62853333D02*
X118746666Y-62853333D01*
X118889523Y-62900952D01*
X118984761Y-62996190D01*
X119032380Y-63139047D01*
X119032380Y-63234285D01*
X119032380Y-61853333D02*
X119032380Y-62424761D01*
X119032380Y-62139047D02*
X118032380Y-62139047D01*
X118175238Y-62234285D01*
X118270476Y-62329523D01*
X118318095Y-62424761D01*
%TO.C,U3*%
X108452380Y-49736904D02*
X109261904Y-49736904D01*
X109357142Y-49689285D01*
X109404761Y-49641666D01*
X109452380Y-49546428D01*
X109452380Y-49355952D01*
X109404761Y-49260714D01*
X109357142Y-49213095D01*
X109261904Y-49165476D01*
X108452380Y-49165476D01*
X108452380Y-48784523D02*
X108452380Y-48165476D01*
X108833333Y-48498809D01*
X108833333Y-48355952D01*
X108880952Y-48260714D01*
X108928571Y-48213095D01*
X109023809Y-48165476D01*
X109261904Y-48165476D01*
X109357142Y-48213095D01*
X109404761Y-48260714D01*
X109452380Y-48355952D01*
X109452380Y-48641666D01*
X109404761Y-48736904D01*
X109357142Y-48784523D01*
%TO.C,C9*%
X80607142Y-67166666D02*
X80654761Y-67214285D01*
X80702380Y-67357142D01*
X80702380Y-67452380D01*
X80654761Y-67595238D01*
X80559523Y-67690476D01*
X80464285Y-67738095D01*
X80273809Y-67785714D01*
X80130952Y-67785714D01*
X79940476Y-67738095D01*
X79845238Y-67690476D01*
X79750000Y-67595238D01*
X79702380Y-67452380D01*
X79702380Y-67357142D01*
X79750000Y-67214285D01*
X79797619Y-67166666D01*
X80702380Y-66690476D02*
X80702380Y-66500000D01*
X80654761Y-66404761D01*
X80607142Y-66357142D01*
X80464285Y-66261904D01*
X80273809Y-66214285D01*
X79892857Y-66214285D01*
X79797619Y-66261904D01*
X79750000Y-66309523D01*
X79702380Y-66404761D01*
X79702380Y-66595238D01*
X79750000Y-66690476D01*
X79797619Y-66738095D01*
X79892857Y-66785714D01*
X80130952Y-66785714D01*
X80226190Y-66738095D01*
X80273809Y-66690476D01*
X80321428Y-66595238D01*
X80321428Y-66404761D01*
X80273809Y-66309523D01*
X80226190Y-66261904D01*
X80130952Y-66214285D01*
%TO.C,C4*%
X78333333Y-54357142D02*
X78285714Y-54404761D01*
X78142857Y-54452380D01*
X78047619Y-54452380D01*
X77904761Y-54404761D01*
X77809523Y-54309523D01*
X77761904Y-54214285D01*
X77714285Y-54023809D01*
X77714285Y-53880952D01*
X77761904Y-53690476D01*
X77809523Y-53595238D01*
X77904761Y-53500000D01*
X78047619Y-53452380D01*
X78142857Y-53452380D01*
X78285714Y-53500000D01*
X78333333Y-53547619D01*
X79190476Y-53785714D02*
X79190476Y-54452380D01*
X78952380Y-53404761D02*
X78714285Y-54119047D01*
X79333333Y-54119047D01*
%TO.C,C15*%
X113857142Y-49892857D02*
X113904761Y-49940476D01*
X113952380Y-50083333D01*
X113952380Y-50178571D01*
X113904761Y-50321428D01*
X113809523Y-50416666D01*
X113714285Y-50464285D01*
X113523809Y-50511904D01*
X113380952Y-50511904D01*
X113190476Y-50464285D01*
X113095238Y-50416666D01*
X113000000Y-50321428D01*
X112952380Y-50178571D01*
X112952380Y-50083333D01*
X113000000Y-49940476D01*
X113047619Y-49892857D01*
X113952380Y-48940476D02*
X113952380Y-49511904D01*
X113952380Y-49226190D02*
X112952380Y-49226190D01*
X113095238Y-49321428D01*
X113190476Y-49416666D01*
X113238095Y-49511904D01*
X112952380Y-48035714D02*
X112952380Y-48511904D01*
X113428571Y-48559523D01*
X113380952Y-48511904D01*
X113333333Y-48416666D01*
X113333333Y-48178571D01*
X113380952Y-48083333D01*
X113428571Y-48035714D01*
X113523809Y-47988095D01*
X113761904Y-47988095D01*
X113857142Y-48035714D01*
X113904761Y-48083333D01*
X113952380Y-48178571D01*
X113952380Y-48416666D01*
X113904761Y-48511904D01*
X113857142Y-48559523D01*
%TO.C,J9*%
X77416666Y-82202380D02*
X77416666Y-82916666D01*
X77369047Y-83059523D01*
X77273809Y-83154761D01*
X77130952Y-83202380D01*
X77035714Y-83202380D01*
X77940476Y-83202380D02*
X78130952Y-83202380D01*
X78226190Y-83154761D01*
X78273809Y-83107142D01*
X78369047Y-82964285D01*
X78416666Y-82773809D01*
X78416666Y-82392857D01*
X78369047Y-82297619D01*
X78321428Y-82250000D01*
X78226190Y-82202380D01*
X78035714Y-82202380D01*
X77940476Y-82250000D01*
X77892857Y-82297619D01*
X77845238Y-82392857D01*
X77845238Y-82630952D01*
X77892857Y-82726190D01*
X77940476Y-82773809D01*
X78035714Y-82821428D01*
X78226190Y-82821428D01*
X78321428Y-82773809D01*
X78369047Y-82726190D01*
X78416666Y-82630952D01*
%TO.C,SW2*%
X46404761Y-73083333D02*
X46452380Y-72940476D01*
X46452380Y-72702380D01*
X46404761Y-72607142D01*
X46357142Y-72559523D01*
X46261904Y-72511904D01*
X46166666Y-72511904D01*
X46071428Y-72559523D01*
X46023809Y-72607142D01*
X45976190Y-72702380D01*
X45928571Y-72892857D01*
X45880952Y-72988095D01*
X45833333Y-73035714D01*
X45738095Y-73083333D01*
X45642857Y-73083333D01*
X45547619Y-73035714D01*
X45500000Y-72988095D01*
X45452380Y-72892857D01*
X45452380Y-72654761D01*
X45500000Y-72511904D01*
X45452380Y-72178571D02*
X46452380Y-71940476D01*
X45738095Y-71750000D01*
X46452380Y-71559523D01*
X45452380Y-71321428D01*
X45547619Y-70988095D02*
X45500000Y-70940476D01*
X45452380Y-70845238D01*
X45452380Y-70607142D01*
X45500000Y-70511904D01*
X45547619Y-70464285D01*
X45642857Y-70416666D01*
X45738095Y-70416666D01*
X45880952Y-70464285D01*
X46452380Y-71035714D01*
X46452380Y-70416666D01*
%TO.C,H3*%
X116238095Y-27452380D02*
X116238095Y-26452380D01*
X116238095Y-26928571D02*
X116809523Y-26928571D01*
X116809523Y-27452380D02*
X116809523Y-26452380D01*
X117190476Y-26452380D02*
X117809523Y-26452380D01*
X117476190Y-26833333D01*
X117619047Y-26833333D01*
X117714285Y-26880952D01*
X117761904Y-26928571D01*
X117809523Y-27023809D01*
X117809523Y-27261904D01*
X117761904Y-27357142D01*
X117714285Y-27404761D01*
X117619047Y-27452380D01*
X117333333Y-27452380D01*
X117238095Y-27404761D01*
X117190476Y-27357142D01*
%TO.C,J7*%
X40112380Y-51523333D02*
X40826666Y-51523333D01*
X40969523Y-51570952D01*
X41064761Y-51666190D01*
X41112380Y-51809047D01*
X41112380Y-51904285D01*
X40112380Y-51142380D02*
X40112380Y-50475714D01*
X41112380Y-50904285D01*
%TO.C,R1*%
X58202380Y-75716666D02*
X57726190Y-76050000D01*
X58202380Y-76288095D02*
X57202380Y-76288095D01*
X57202380Y-75907142D01*
X57250000Y-75811904D01*
X57297619Y-75764285D01*
X57392857Y-75716666D01*
X57535714Y-75716666D01*
X57630952Y-75764285D01*
X57678571Y-75811904D01*
X57726190Y-75907142D01*
X57726190Y-76288095D01*
X58202380Y-74764285D02*
X58202380Y-75335714D01*
X58202380Y-75050000D02*
X57202380Y-75050000D01*
X57345238Y-75145238D01*
X57440476Y-75240476D01*
X57488095Y-75335714D01*
%TO.C,C5*%
X93007142Y-75166666D02*
X93054761Y-75214285D01*
X93102380Y-75357142D01*
X93102380Y-75452380D01*
X93054761Y-75595238D01*
X92959523Y-75690476D01*
X92864285Y-75738095D01*
X92673809Y-75785714D01*
X92530952Y-75785714D01*
X92340476Y-75738095D01*
X92245238Y-75690476D01*
X92150000Y-75595238D01*
X92102380Y-75452380D01*
X92102380Y-75357142D01*
X92150000Y-75214285D01*
X92197619Y-75166666D01*
X92102380Y-74261904D02*
X92102380Y-74738095D01*
X92578571Y-74785714D01*
X92530952Y-74738095D01*
X92483333Y-74642857D01*
X92483333Y-74404761D01*
X92530952Y-74309523D01*
X92578571Y-74261904D01*
X92673809Y-74214285D01*
X92911904Y-74214285D01*
X93007142Y-74261904D01*
X93054761Y-74309523D01*
X93102380Y-74404761D01*
X93102380Y-74642857D01*
X93054761Y-74738095D01*
X93007142Y-74785714D01*
%TO.C,R6*%
X62833333Y-43482380D02*
X62500000Y-43006190D01*
X62261904Y-43482380D02*
X62261904Y-42482380D01*
X62642857Y-42482380D01*
X62738095Y-42530000D01*
X62785714Y-42577619D01*
X62833333Y-42672857D01*
X62833333Y-42815714D01*
X62785714Y-42910952D01*
X62738095Y-42958571D01*
X62642857Y-43006190D01*
X62261904Y-43006190D01*
X63690476Y-42482380D02*
X63500000Y-42482380D01*
X63404761Y-42530000D01*
X63357142Y-42577619D01*
X63261904Y-42720476D01*
X63214285Y-42910952D01*
X63214285Y-43291904D01*
X63261904Y-43387142D01*
X63309523Y-43434761D01*
X63404761Y-43482380D01*
X63595238Y-43482380D01*
X63690476Y-43434761D01*
X63738095Y-43387142D01*
X63785714Y-43291904D01*
X63785714Y-43053809D01*
X63738095Y-42958571D01*
X63690476Y-42910952D01*
X63595238Y-42863333D01*
X63404761Y-42863333D01*
X63309523Y-42910952D01*
X63261904Y-42958571D01*
X63214285Y-43053809D01*
%TO.C,C13*%
X53107142Y-43357142D02*
X53059523Y-43404761D01*
X52916666Y-43452380D01*
X52821428Y-43452380D01*
X52678571Y-43404761D01*
X52583333Y-43309523D01*
X52535714Y-43214285D01*
X52488095Y-43023809D01*
X52488095Y-42880952D01*
X52535714Y-42690476D01*
X52583333Y-42595238D01*
X52678571Y-42500000D01*
X52821428Y-42452380D01*
X52916666Y-42452380D01*
X53059523Y-42500000D01*
X53107142Y-42547619D01*
X54059523Y-43452380D02*
X53488095Y-43452380D01*
X53773809Y-43452380D02*
X53773809Y-42452380D01*
X53678571Y-42595238D01*
X53583333Y-42690476D01*
X53488095Y-42738095D01*
X54392857Y-42452380D02*
X55011904Y-42452380D01*
X54678571Y-42833333D01*
X54821428Y-42833333D01*
X54916666Y-42880952D01*
X54964285Y-42928571D01*
X55011904Y-43023809D01*
X55011904Y-43261904D01*
X54964285Y-43357142D01*
X54916666Y-43404761D01*
X54821428Y-43452380D01*
X54535714Y-43452380D01*
X54440476Y-43404761D01*
X54392857Y-43357142D01*
%TO.C,H1*%
X37238095Y-79452380D02*
X37238095Y-78452380D01*
X37238095Y-78928571D02*
X37809523Y-78928571D01*
X37809523Y-79452380D02*
X37809523Y-78452380D01*
X38809523Y-79452380D02*
X38238095Y-79452380D01*
X38523809Y-79452380D02*
X38523809Y-78452380D01*
X38428571Y-78595238D01*
X38333333Y-78690476D01*
X38238095Y-78738095D01*
%TO.C,C8*%
X97083333Y-57357142D02*
X97035714Y-57404761D01*
X96892857Y-57452380D01*
X96797619Y-57452380D01*
X96654761Y-57404761D01*
X96559523Y-57309523D01*
X96511904Y-57214285D01*
X96464285Y-57023809D01*
X96464285Y-56880952D01*
X96511904Y-56690476D01*
X96559523Y-56595238D01*
X96654761Y-56500000D01*
X96797619Y-56452380D01*
X96892857Y-56452380D01*
X97035714Y-56500000D01*
X97083333Y-56547619D01*
X97654761Y-56880952D02*
X97559523Y-56833333D01*
X97511904Y-56785714D01*
X97464285Y-56690476D01*
X97464285Y-56642857D01*
X97511904Y-56547619D01*
X97559523Y-56500000D01*
X97654761Y-56452380D01*
X97845238Y-56452380D01*
X97940476Y-56500000D01*
X97988095Y-56547619D01*
X98035714Y-56642857D01*
X98035714Y-56690476D01*
X97988095Y-56785714D01*
X97940476Y-56833333D01*
X97845238Y-56880952D01*
X97654761Y-56880952D01*
X97559523Y-56928571D01*
X97511904Y-56976190D01*
X97464285Y-57071428D01*
X97464285Y-57261904D01*
X97511904Y-57357142D01*
X97559523Y-57404761D01*
X97654761Y-57452380D01*
X97845238Y-57452380D01*
X97940476Y-57404761D01*
X97988095Y-57357142D01*
X98035714Y-57261904D01*
X98035714Y-57071428D01*
X97988095Y-56976190D01*
X97940476Y-56928571D01*
X97845238Y-56880952D01*
D11*
%TO.C,C7*%
X89265000Y-54798752D02*
X89265000Y-54276248D01*
X90735000Y-54798752D02*
X90735000Y-54276248D01*
%TO.C,U2*%
X47260000Y-51150000D02*
X47260000Y-54910000D01*
X47260000Y-54910000D02*
X48520000Y-54910000D01*
X54080000Y-48900000D02*
X54080000Y-54910000D01*
X54080000Y-54910000D02*
X52820000Y-54910000D01*
%TO.C,Y1*%
X81250000Y-77400000D02*
X86650000Y-77400000D01*
X81250000Y-72900000D02*
X81250000Y-77400000D01*
%TO.C,J8*%
X64120000Y-89400000D02*
X64620000Y-89400000D01*
X64120000Y-88660000D02*
X64120000Y-89400000D01*
X64360000Y-83300000D02*
X75100000Y-83300000D01*
X64360000Y-89160000D02*
X75100000Y-89160000D01*
X75100000Y-82840000D02*
X75100000Y-89160000D01*
X64360000Y-82840000D02*
X75100000Y-82840000D01*
X64360000Y-82840000D02*
X64360000Y-89160000D01*
X64360000Y-88600000D02*
X75100000Y-88600000D01*
%TO.C,SW1*%
X60880000Y-62350000D02*
X60880000Y-67550000D01*
X62850000Y-61880000D02*
X65050000Y-61880000D01*
X67120000Y-62950000D02*
X67120000Y-67350000D01*
X65050000Y-68120000D02*
X62850000Y-68120000D01*
X65414214Y-65000000D02*
G75*
G03*
X65414214Y-65000000I-1414214J0D01*
G01*
%TO.C,C17*%
X110473752Y-54447500D02*
X109051248Y-54447500D01*
X110473752Y-52627500D02*
X109051248Y-52627500D01*
%TO.C,J10*%
X81710000Y-46400000D02*
X81010000Y-46400000D01*
X81710000Y-41100000D02*
X81710000Y-46400000D01*
X68790000Y-41100000D02*
X68790000Y-46400000D01*
X69490000Y-41100000D02*
X68790000Y-41100000D01*
X68790000Y-46400000D02*
X69490000Y-46400000D01*
X81010000Y-41100000D02*
X81710000Y-41100000D01*
%TO.C,C10*%
X86265000Y-69776248D02*
X86265000Y-70298752D01*
X87735000Y-69776248D02*
X87735000Y-70298752D01*
%TO.C,J3*%
X48570000Y-89448345D02*
X59310000Y-89448345D01*
X59310000Y-83128345D02*
X59310000Y-89448345D01*
X48570000Y-88888345D02*
X59310000Y-88888345D01*
X48330000Y-89688345D02*
X48830000Y-89688345D01*
X48330000Y-88948345D02*
X48330000Y-89688345D01*
X48570000Y-83588345D02*
X59310000Y-83588345D01*
X48570000Y-83128345D02*
X48570000Y-89448345D01*
X48570000Y-83128345D02*
X59310000Y-83128345D01*
%TO.C,D1*%
X59880000Y-51601000D02*
X59880000Y-51920000D01*
X59880000Y-54080000D02*
X59880000Y-54399000D01*
X59880000Y-54398749D02*
G75*
G03*
X64183242Y-54080724I2060000J1398749D01*
G01*
X63622713Y-51919039D02*
G75*
G03*
X60256670Y-51920000I-1682713J-1080961D01*
G01*
X60256670Y-54080000D02*
G75*
G03*
X63622713Y-54080961I1683330J1080000D01*
G01*
X64183242Y-51919276D02*
G75*
G03*
X59880000Y-51601251I-2243242J-1080724D01*
G01*
%TO.C,J6*%
X82375000Y-26840000D02*
X71635000Y-26840000D01*
X82615000Y-27340000D02*
X82615000Y-26600000D01*
X82375000Y-27400000D02*
X71635000Y-27400000D01*
X82375000Y-33160000D02*
X82375000Y-26840000D01*
X82375000Y-32700000D02*
X71635000Y-32700000D01*
X82375000Y-33160000D02*
X71635000Y-33160000D01*
X82615000Y-26600000D02*
X82115000Y-26600000D01*
X71635000Y-33160000D02*
X71635000Y-26840000D01*
%TO.C,U1*%
X81490000Y-58040000D02*
X81490000Y-57590000D01*
X81490000Y-64360000D02*
X81490000Y-64810000D01*
X88710000Y-64360000D02*
X88710000Y-64810000D01*
X88710000Y-58040000D02*
X88710000Y-57590000D01*
X81490000Y-57590000D02*
X81940000Y-57590000D01*
X88710000Y-64810000D02*
X88260000Y-64810000D01*
X81940000Y-64810000D02*
X81940000Y-66100000D01*
X88710000Y-57590000D02*
X88260000Y-57590000D01*
X81490000Y-64810000D02*
X81940000Y-64810000D01*
%TO.C,C1*%
X60473752Y-57765000D02*
X59951248Y-57765000D01*
X60473752Y-59235000D02*
X59951248Y-59235000D01*
%TO.C,J2*%
X52060000Y-26750000D02*
X52060000Y-27010000D01*
X52060000Y-29290000D02*
X52060000Y-31060000D01*
X44440000Y-31060000D02*
X44820000Y-31060000D01*
X44440000Y-31060000D02*
X44440000Y-29290000D01*
X52060000Y-31060000D02*
X51680000Y-31060000D01*
X44440000Y-27010000D02*
X44440000Y-26750000D01*
%TO.C,J5*%
X66375000Y-33160000D02*
X55635000Y-33160000D01*
X66615000Y-26600000D02*
X66115000Y-26600000D01*
X66375000Y-26840000D02*
X55635000Y-26840000D01*
X66375000Y-33160000D02*
X66375000Y-26840000D01*
X55635000Y-33160000D02*
X55635000Y-26840000D01*
X66615000Y-27340000D02*
X66615000Y-26600000D01*
X66375000Y-27400000D02*
X55635000Y-27400000D01*
X66375000Y-32700000D02*
X55635000Y-32700000D01*
%TO.C,C12*%
X43910000Y-50726248D02*
X43910000Y-52148752D01*
X42090000Y-50726248D02*
X42090000Y-52148752D01*
%TO.C,C3*%
X79410000Y-75773752D02*
X79410000Y-74351248D01*
X77590000Y-75773752D02*
X77590000Y-74351248D01*
%TO.C,C14*%
X110076248Y-45460000D02*
X110598752Y-45460000D01*
X110076248Y-43990000D02*
X110598752Y-43990000D01*
%TO.C,J4*%
X98090000Y-26850000D02*
X97590000Y-26850000D01*
X97850000Y-33410000D02*
X97850000Y-27090000D01*
X97850000Y-27650000D02*
X87110000Y-27650000D01*
X98090000Y-27590000D02*
X98090000Y-26850000D01*
X97850000Y-33410000D02*
X87110000Y-33410000D01*
X97850000Y-27090000D02*
X87110000Y-27090000D01*
X97850000Y-32950000D02*
X87110000Y-32950000D01*
X87110000Y-33410000D02*
X87110000Y-27090000D01*
%TO.C,C2*%
X74648752Y-64090000D02*
X73226248Y-64090000D01*
X74648752Y-65910000D02*
X73226248Y-65910000D01*
%TO.C,R5*%
X51590000Y-39777064D02*
X51590000Y-38322936D01*
X53410000Y-39777064D02*
X53410000Y-38322936D01*
%TO.C,C16*%
X107710000Y-43936252D02*
X107710000Y-42513748D01*
X105890000Y-43936252D02*
X105890000Y-42513748D01*
%TO.C,C6*%
X81015000Y-53473752D02*
X81015000Y-52951248D01*
X82485000Y-53473752D02*
X82485000Y-52951248D01*
%TO.C,C11*%
X92090000Y-53273752D02*
X92090000Y-51851248D01*
X93910000Y-53273752D02*
X93910000Y-51851248D01*
%TO.C,J1*%
X114980000Y-59920000D02*
X107300000Y-59920000D01*
X117580000Y-62520000D02*
X117580000Y-65120000D01*
X117580000Y-65120000D02*
X107300000Y-65120000D01*
X116250000Y-59920000D02*
X117580000Y-59920000D01*
X117580000Y-59920000D02*
X117580000Y-61250000D01*
X114980000Y-62520000D02*
X117580000Y-62520000D01*
X114980000Y-59920000D02*
X114980000Y-62520000D01*
X107300000Y-59920000D02*
X107300000Y-65120000D01*
%TO.C,U3*%
X103690000Y-46865000D02*
X104365000Y-46865000D01*
X107910000Y-47540000D02*
X107910000Y-46865000D01*
X107910000Y-50410000D02*
X107910000Y-51085000D01*
X103690000Y-47540000D02*
X103690000Y-46865000D01*
X103690000Y-50410000D02*
X103690000Y-51085000D01*
X107910000Y-51085000D02*
X107235000Y-51085000D01*
X103690000Y-51085000D02*
X104365000Y-51085000D01*
%TO.C,C9*%
X79235000Y-66276248D02*
X79235000Y-66798752D01*
X77765000Y-66276248D02*
X77765000Y-66798752D01*
%TO.C,C4*%
X78973752Y-55015000D02*
X78451248Y-55015000D01*
X78973752Y-56485000D02*
X78451248Y-56485000D01*
%TO.C,C15*%
X110465000Y-48313748D02*
X110465000Y-48836252D01*
X111935000Y-48313748D02*
X111935000Y-48836252D01*
%TO.C,J9*%
X79360000Y-89160000D02*
X90100000Y-89160000D01*
X79360000Y-88600000D02*
X90100000Y-88600000D01*
X79360000Y-83300000D02*
X90100000Y-83300000D01*
X79120000Y-88660000D02*
X79120000Y-89400000D01*
X79360000Y-82840000D02*
X79360000Y-89160000D01*
X79120000Y-89400000D02*
X79620000Y-89400000D01*
X79360000Y-82840000D02*
X90100000Y-82840000D01*
X90100000Y-82840000D02*
X90100000Y-89160000D01*
%TO.C,SW2*%
X50910000Y-76610000D02*
X47090000Y-76610000D01*
X47090000Y-67390000D02*
X47090000Y-68740000D01*
X50910000Y-68740000D02*
X50910000Y-67390000D01*
X50910000Y-73740000D02*
X50910000Y-72760000D01*
X50910000Y-76610000D02*
X50910000Y-75260000D01*
X50910000Y-67390000D02*
X47090000Y-67390000D01*
X47090000Y-73740000D02*
X47090000Y-72760000D01*
X50910000Y-71240000D02*
X50910000Y-70260000D01*
X47090000Y-76610000D02*
X47090000Y-75260000D01*
X47090000Y-71240000D02*
X47090000Y-70260000D01*
%TO.C,J7*%
X33900000Y-45820000D02*
X33900000Y-56560000D01*
X33100000Y-45580000D02*
X33100000Y-46080000D01*
X39660000Y-45820000D02*
X33340000Y-45820000D01*
X39660000Y-56560000D02*
X33340000Y-56560000D01*
X33840000Y-45580000D02*
X33100000Y-45580000D01*
X39200000Y-45820000D02*
X39200000Y-56560000D01*
X33340000Y-45820000D02*
X33340000Y-56560000D01*
X39660000Y-45820000D02*
X39660000Y-56560000D01*
%TO.C,R1*%
X55090000Y-74822936D02*
X55090000Y-76277064D01*
X56910000Y-74822936D02*
X56910000Y-76277064D01*
%TO.C,C5*%
X89090000Y-74288748D02*
X89090000Y-75711252D01*
X90910000Y-74288748D02*
X90910000Y-75711252D01*
%TO.C,R6*%
X61677936Y-45910000D02*
X63132064Y-45910000D01*
X61677936Y-44090000D02*
X63132064Y-44090000D01*
%TO.C,C13*%
X54131248Y-44090000D02*
X55553752Y-44090000D01*
X54131248Y-45910000D02*
X55553752Y-45910000D01*
%TO.C,C8*%
X93276248Y-57735000D02*
X93798752Y-57735000D01*
X93276248Y-56265000D02*
X93798752Y-56265000D01*
%TD*%
M02*
